<?xml version="1.0" standalone="no"?>
<!DOCTYPE svg PUBLIC "-//W3C//DTD SVG 20010904//EN"
 "http://www.w3.org/TR/2001/REC-SVG-20010904/DTD/svg10.dtd">
<svg version="1.0" xmlns="http://www.w3.org/2000/svg" viewBox="0 0 752.000000 647.000000"
 preserveAspectRatio="xMidYMid meet">

<g transform="translate(0.000000,647.000000) scale(0.100000,-0.100000)"
fill="#000000" stroke="none">
<path d="M3910 6409 c0 -84 19 -296 31 -342 8 -32 13 -36 25 -27 18 16 18 78
-1 248 -18 160 -23 182 -41 182 -10 0 -14 -16 -14 -61z"/>
<path d="M4804 6128 c-108 -114 -244 -293 -244 -323 0 -3 9 -5 20 -5 30 0 310
339 310 375 0 29 -28 14 -86 -47z"/>
<path d="M3456 6171 c-6 -9 64 -159 95 -202 24 -34 49 -38 49 -8 0 34 -75 184
-101 202 -27 19 -35 21 -43 8z"/>
<path d="M4326 6158 c-19 -29 -56 -141 -56 -168 0 -11 6 -20 13 -20 35 0 77
85 77 154 0 53 -13 66 -34 34z"/>
<path d="M2964 6059 c-8 -14 92 -111 207 -200 125 -97 168 -124 180 -112 22
22 -27 73 -206 215 -129 102 -165 122 -181 97z"/>
<path d="M3815 5895 c-113 -30 -234 -88 -313 -148 -122 -93 -253 -302 -256
-409 -2 -86 22 -69 69 47 54 131 77 165 171 255 136 130 253 186 417 200 194
16 352 -18 495 -106 95 -59 258 -220 328 -324 52 -78 84 -100 84 -58 0 43 -74
150 -179 260 -208 217 -387 298 -661 297 -58 0 -127 -6 -155 -14z"/>
<path d="M4995 5761 c-48 -22 -141 -78 -178 -107 -26 -21 -35 -48 -19 -58 12
-7 100 36 180 88 78 52 97 70 87 86 -9 14 -24 12 -70 -9z"/>
<path d="M2950 5625 c0 -8 14 -24 30 -34 42 -25 168 -67 176 -58 4 4 2 18 -4
31 -20 45 -202 100 -202 61z"/>
<path d="M4260 5262 l-25 -8 -3 -460 c-2 -389 0 -463 12 -479 14 -19 16 -19
32 -3 22 22 33 83 34 198 1 52 5 118 9 145 l6 50 69 -130 c125 -234 160 -281
192 -254 30 25 14 75 -85 276 l-99 201 50 48 c27 27 60 67 74 90 47 80 41 183
-16 248 -51 58 -181 98 -250 78z m138 -61 c118 -61 139 -175 51 -275 -43 -49
-106 -92 -117 -81 -8 8 -16 340 -8 361 7 19 30 18 74 -5z"/>
<path d="M4570 5255 c-20 -24 16 -104 138 -304 l75 -124 8 -232 c7 -255 15
-290 59 -290 32 0 37 23 39 180 1 66 6 181 11 255 7 121 11 142 40 205 47 101
111 285 104 296 -11 19 -40 -20 -79 -104 -91 -201 -104 -227 -113 -227 -4 0
-46 66 -93 146 -119 206 -153 242 -189 199z"/>
<path d="M3094 5240 c-37 -12 -39 -17 -55 -155 -14 -119 -6 -671 10 -726 l11
-36 110 -7 c121 -7 166 3 138 30 -8 8 -43 18 -79 22 l-64 7 -7 40 c-4 22 -7
113 -7 203 l-1 162 29 0 c32 0 56 22 48 44 -3 8 -22 18 -41 22 l-36 6 0 169 0
169 74 0 c41 0 81 3 90 6 21 8 20 31 -1 38 -38 11 -190 15 -219 6z"/>
<path d="M3409 5228 c-15 -28 -8 -90 37 -343 60 -340 106 -510 147 -543 38
-32 77 60 122 283 55 282 83 551 59 575 -21 21 -33 -15 -58 -176 -42 -263 -79
-455 -87 -447 -4 5 -25 116 -48 248 -54 307 -68 368 -92 400 -25 31 -64 33
-80 3z"/>
<path d="M3915 5242 c-39 -9 -50 -44 -64 -193 -19 -199 -10 -621 15 -701 7
-23 28 -27 154 -30 91 -3 105 -1 108 14 4 19 -49 38 -109 38 -47 0 -47 3 -56
233 l-6 177 31 0 c39 0 68 26 51 46 -6 8 -26 18 -43 22 l-31 8 -3 167 -2 167
74 0 c41 0 81 3 90 6 21 8 20 31 -1 38 -33 9 -178 15 -208 8z"/>
<path d="M2145 4779 c-73 -64 -155 -275 -260 -664 -31 -116 -62 -230 -69 -255
-11 -38 -13 26 -18 420 -3 307 -9 474 -16 493 -13 30 -36 36 -46 11 -8 -20 -5
-1086 3 -1299 5 -132 9 -160 21 -160 24 0 36 39 90 300 69 330 131 577 191
757 52 159 131 338 148 338 6 0 18 -15 28 -32 16 -30 19 -79 24 -513 3 -264 6
-481 7 -482 1 -2 9 -3 17 -3 19 0 44 50 94 192 58 165 124 319 165 386 40 65
104 134 119 129 36 -12 39 -210 8 -527 -41 -421 -21 -618 71 -695 19 -16 42
-25 64 -25 49 0 122 76 170 176 19 40 39 74 44 74 4 0 15 -11 24 -25 23 -35
74 -65 110 -65 44 0 112 45 140 93 14 23 36 84 50 134 29 111 28 108 74 132
20 11 66 45 102 76 l65 56 5 -233 c5 -212 7 -233 23 -236 24 -5 35 26 113 297
76 265 122 409 134 416 4 3 11 -5 14 -18 6 -20 24 -335 26 -444 0 -36 3 -43
20 -43 26 0 58 47 145 211 39 73 83 145 98 162 49 52 52 36 53 -261 0 -184 4
-279 13 -304 17 -52 72 -98 117 -98 66 0 99 31 181 168 l20 34 20 -35 c23 -38
93 -77 139 -77 96 0 193 81 276 230 l48 85 0 -60 c0 -81 16 -137 38 -133 28 5
57 74 122 282 77 247 127 378 162 419 49 59 52 43 59 -331 7 -366 11 -395 62
-438 62 -52 116 -20 183 111 22 41 42 75 45 75 3 0 9 -60 13 -132 11 -232 53
-374 132 -454 42 -41 75 -49 121 -28 43 21 85 77 114 153 23 62 37 161 22 161
-5 0 -21 -26 -37 -57 -15 -32 -46 -91 -69 -130 -47 -84 -69 -92 -111 -42 -41
48 -53 78 -71 170 -42 206 -22 1146 24 1192 5 5 102 1 217 -9 115 -9 245 -17
289 -18 70 -1 80 1 83 18 2 10 0 22 -5 27 -11 11 -112 24 -358 44 -125 11
-198 21 -212 31 -20 13 -23 23 -23 80 0 65 -13 109 -30 99 -8 -5 -22 -63 -35
-151 l-6 -41 -119 -6 c-134 -8 -390 -34 -435 -46 -16 -4 -30 -14 -30 -22 0
-17 160 -19 421 -6 l161 8 -8 -58 c-4 -32 -17 -158 -29 -281 -22 -236 -46
-354 -98 -485 -34 -83 -77 -157 -92 -157 -5 0 -17 12 -27 26 -15 24 -18 68
-24 369 -6 306 -8 345 -25 373 -24 42 -65 58 -104 42 -61 -25 -104 -107 -186
-350 l-58 -175 -9 70 c-16 140 -29 204 -42 215 -22 18 -29 -7 -36 -135 l-6
-120 -62 -109 c-100 -176 -169 -246 -244 -246 -45 0 -91 43 -104 97 -9 37 -8
37 82 128 93 92 152 184 157 241 2 35 -27 88 -57 104 -28 15 -63 1 -115 -46
-54 -49 -83 -108 -120 -245 -86 -313 -199 -454 -258 -321 -14 31 -16 80 -17
307 0 241 -2 274 -18 298 -37 56 -104 40 -160 -39 -18 -24 -56 -88 -84 -142
-44 -80 -53 -92 -53 -67 0 95 -23 302 -36 333 -57 137 -114 79 -203 -206 -23
-72 -46 -134 -51 -137 -6 -4 -10 26 -11 77 0 85 -15 149 -35 155 -7 2 -40 -30
-74 -72 -63 -78 -146 -149 -161 -139 -5 3 -9 27 -9 54 0 69 -25 191 -49 239
-12 22 -33 48 -47 57 -24 16 -27 16 -52 -3 -48 -35 -75 -107 -75 -198 0 -100
23 -150 89 -196 46 -31 46 -32 41 -78 -12 -103 -83 -231 -127 -231 -24 0 -65
49 -82 97 -21 61 -14 185 16 286 31 104 32 120 9 115 -29 -5 -80 -123 -103
-238 -37 -181 -101 -339 -161 -396 -37 -36 -54 -28 -89 42 -25 49 -25 51 -24
304 0 162 7 322 19 440 20 215 16 320 -14 384 -30 60 -69 77 -119 50 -63 -34
-137 -150 -219 -344 l-48 -115 -5 320 c-5 300 -6 324 -27 380 -23 59 -70 115
-98 115 -8 0 -30 -14 -50 -31z m1124 -825 c6 -25 14 -88 18 -140 5 -85 4 -94
-11 -94 -27 0 -74 57 -82 97 -9 45 1 121 20 168 13 30 19 35 30 26 8 -6 19
-32 25 -57z m1488 -60 c10 -26 -15 -89 -60 -151 -54 -72 -106 -127 -113 -120
-8 8 33 151 56 196 21 42 73 91 96 91 8 0 17 -7 21 -16z"/>
<path d="M1233 4130 c-109 -54 -178 -153 -208 -297 -30 -140 -12 -286 51 -411
20 -40 35 -74 33 -75 -2 -2 -23 -9 -45 -15 -52 -15 -178 -97 -229 -148 -54
-55 -100 -131 -125 -205 -24 -70 -22 -111 10 -204 l19 -54 -47 -6 c-271 -35
-480 -201 -538 -426 -40 -155 18 -301 152 -386 24 -15 44 -32 44 -36 0 -5 -24
-35 -54 -68 -105 -117 -145 -242 -127 -401 10 -86 18 -104 75 -166 78 -85 190
-112 338 -81 56 12 142 51 153 69 14 23 -10 23 -120 1 -167 -34 -263 -17 -329
61 -45 52 -60 109 -54 206 8 139 80 262 200 339 37 24 68 48 68 52 0 16 -37
38 -94 55 -98 30 -181 123 -200 226 -8 46 16 137 57 214 47 90 118 155 232
211 l97 49 134 5 c78 4 138 11 144 17 9 9 0 25 -33 62 -114 128 -96 270 53
422 71 73 138 109 235 130 72 16 95 26 95 44 0 7 -25 48 -55 89 -31 42 -62 94
-70 116 -21 61 -29 195 -16 280 17 108 44 162 112 226 79 72 142 89 234 64 55
-15 88 -41 124 -96 l31 -46 0 45 c0 62 -31 106 -99 141 -79 39 -165 38 -248
-3z"/>
<path d="M624 4005 c-17 -43 29 -92 61 -65 18 15 19 52 3 68 -17 17 -57 15
-64 -3z"/>
<path d="M820 4002 c-84 -27 -76 -152 10 -152 64 0 95 84 48 127 -31 27 -40
31 -58 25z"/>
<path d="M6265 3812 c-61 -21 -118 -63 -144 -106 -29 -47 -31 -100 -5 -110 11
-4 19 4 30 29 21 52 80 112 122 126 160 53 321 -59 361 -251 9 -44 8 -72 -4
-140 -8 -47 -15 -102 -15 -122 0 -43 13 -47 83 -27 32 9 45 7 82 -11 134 -65
117 -260 -34 -404 -38 -37 -39 -61 -3 -80 35 -18 85 -72 106 -113 20 -40 21
-132 1 -179 -8 -20 -31 -58 -50 -84 -61 -83 -48 -95 75 -73 126 22 227 14 287
-23 82 -50 138 -154 157 -290 14 -98 -36 -227 -119 -310 -65 -65 -107 -87
-236 -119 -57 -15 -107 -29 -112 -32 -21 -13 24 -23 108 -23 80 0 97 4 154 30
89 42 212 165 234 235 24 74 30 168 18 274 -12 113 -37 167 -105 237 -70 71
-138 96 -268 96 -54 1 -98 4 -98 7 0 3 9 35 20 69 11 35 20 79 20 98 0 45 -32
124 -80 194 l-40 58 40 49 c72 86 99 211 69 314 -24 78 -97 139 -185 153 l-41
7 -6 135 c-7 155 -21 196 -92 280 -32 37 -67 64 -117 88 -81 41 -133 46 -213
18z"/>
<path d="M632 3675 l6 -45 -40 0 c-32 0 -39 -3 -36 -17 2 -10 21 -27 42 -39
l40 -22 -49 -24 c-72 -34 -72 -52 0 -46 l57 5 -6 -56 c-10 -98 30 -109 53 -15
l12 46 25 -50 c50 -100 87 -95 55 6 l-19 62 54 0 c30 0 54 4 54 9 0 5 -16 19
-35 31 -19 12 -36 26 -36 31 -3 19 -5 24 -12 37 -5 6 -17 12 -28 12 -23 0 -23
2 -4 62 10 34 11 49 3 54 -13 8 -58 -40 -58 -63 0 -23 -25 0 -40 37 -7 17 -19
30 -28 30 -11 0 -14 -9 -10 -45z"/>
<path d="M7150 3410 c-6 -12 -9 -28 -6 -36 8 -20 65 -18 73 2 16 41 -46 72
-67 34z"/>
<path d="M7016 3355 c-22 -22 -20 -51 4 -75 27 -27 48 -25 62 6 13 29 5 48
-29 71 -18 12 -23 12 -37 -2z"/>
<path d="M360 3170 l-34 -70 -55 0 c-56 0 -101 -15 -108 -36 -2 -6 17 -39 42
-73 l46 -63 -25 -64 c-14 -35 -23 -70 -20 -79 10 -24 61 -18 134 16 l67 31 38
-26 c44 -30 78 -41 100 -32 13 5 15 18 9 78 l-6 73 39 50 c68 85 63 102 -29
112 l-54 5 -35 72 c-47 98 -64 99 -109 6z m84 -50 c25 -64 33 -70 87 -70 27 0
49 -3 49 -6 0 -3 -18 -26 -40 -51 -37 -42 -40 -50 -40 -104 0 -33 -4 -59 -9
-59 -4 0 -20 9 -34 20 -32 25 -63 25 -128 0 -28 -12 -53 -19 -55 -17 -3 2 3
20 11 40 23 55 19 78 -22 119 -20 21 -34 40 -31 43 3 3 28 9 56 14 63 10 72
17 102 81 13 28 27 47 30 43 4 -5 15 -28 24 -53z"/>
<path d="M1187 3150 c-9 -11 -26 -20 -37 -20 -13 0 -20 -7 -20 -20 0 -16 -7
-20 -35 -20 -40 0 -46 -17 -15 -45 27 -24 25 -31 -11 -44 -34 -12 -31 -31 6
-31 47 0 55 -9 49 -51 -7 -41 4 -51 26 -24 18 21 29 19 42 -10 18 -39 28 -30
28 25 0 53 3 56 46 40 15 -6 29 -8 32 -6 2 3 -2 26 -9 51 -11 38 -19 47 -41
52 -27 5 -28 8 -28 64 0 63 -6 70 -33 39z"/>
<path d="M7243 3125 l-19 -36 -22 31 c-13 16 -29 30 -37 30 -18 0 -19 -9 -5
-44 10 -28 5 -31 -34 -17 -17 7 -27 6 -35 -3 -8 -9 0 -22 29 -51 l40 -39 -32
-16 c-44 -21 -46 -37 -6 -48 31 -8 33 -11 36 -55 2 -26 7 -47 12 -47 4 0 18
16 31 36 l22 36 21 -38 c31 -55 46 -55 46 1 0 45 1 47 25 41 23 -6 25 -4 25
31 0 45 -7 58 -38 68 -22 6 -23 11 -20 77 4 83 -11 99 -39 43z"/>
<path d="M6393 3088 c-34 -43 -15 -92 32 -86 26 3 30 8 33 36 2 18 -2 40 -9
48 -14 17 -43 18 -56 2z"/>
<path d="M3939 3071 l-24 -19 -3 -461 -3 -461 35 0 c54 0 63 23 70 180 4 74 9
164 13 199 l6 64 19 -24 c39 -48 79 -149 102 -255 29 -136 32 -143 64 -151 47
-11 57 6 56 98 -1 69 -7 99 -33 167 -18 45 -49 103 -70 130 -20 26 -40 53 -44
59 -5 8 9 33 33 65 65 82 84 125 85 193 0 48 -6 69 -27 106 -57 97 -218 160
-279 110z m157 -83 c77 -54 104 -131 68 -200 -20 -39 -103 -128 -119 -128 -8
0 -14 27 -19 77 -11 141 -5 283 14 283 4 0 29 -15 56 -32z"/>
<path d="M6567 3074 c-4 -4 -7 -20 -7 -36 0 -27 3 -29 33 -26 28 3 32 6 32 33
0 25 -5 31 -25 33 -14 2 -29 0 -33 -4z"/>
<path d="M2913 3048 c-29 -32 -39 -55 -52 -118 -31 -155 -54 -504 -43 -675 l7
-110 35 -3 c63 -4 64 -1 70 193 6 207 5 205 106 205 l62 0 6 -162 c8 -197 12
-220 34 -216 35 7 25 436 -14 627 -25 120 -52 181 -104 234 -52 52 -77 58
-107 25z m112 -140 c28 -68 52 -161 63 -245 l8 -61 -29 -6 c-16 -3 -51 -6 -78
-6 l-49 0 5 38 c2 20 9 93 15 162 17 204 25 217 65 118z"/>
<path d="M3530 3057 c-37 -19 -41 -64 -43 -493 -2 -363 -1 -383 17 -403 25
-27 52 -27 67 1 9 17 25 240 28 400 1 25 6 29 42 34 83 14 90 64 8 64 l-49 0
0 175 0 175 106 0 c58 0 114 5 125 10 23 13 25 36 3 44 -31 12 -278 6 -304 -7z"/>
<path d="M4404 3058 c-15 -24 -44 -853 -31 -884 14 -34 50 -44 156 -44 73 0
102 4 110 14 19 23 -23 43 -107 51 -62 6 -72 10 -67 24 3 9 9 86 12 172 l6
157 54 4 c58 5 79 18 70 42 -5 12 -21 16 -61 16 l-54 0 -6 73 c-3 39 -9 131
-13 203 l-8 132 92 4 c87 4 127 17 109 35 -4 5 -63 9 -131 11 -94 3 -125 0
-131 -10z"/>
<path d="M5235 3050 c-9 -29 -10 -879 -1 -907 11 -34 63 -32 76 3 6 14 10 115
10 225 l0 199 83 0 84 0 7 -197 c7 -209 12 -246 30 -240 16 5 24 153 24 462 0
351 -8 469 -29 473 -14 2 -17 -16 -22 -125 -4 -70 -7 -167 -7 -215 l0 -88 -54
0 c-29 0 -68 -3 -85 -6 l-31 -6 -1 193 c-1 107 -4 205 -8 219 -9 35 -66 42
-76 10z"/>
<path d="M2315 3017 c-115 -45 -198 -167 -180 -265 11 -60 60 -144 134 -232
91 -108 126 -178 126 -247 0 -41 -5 -57 -22 -74 -20 -20 -25 -21 -53 -9 -42
17 -76 65 -84 119 -9 58 -25 89 -37 70 -13 -21 -11 -106 5 -143 25 -60 105
-106 184 -106 38 0 49 5 77 34 91 97 65 228 -90 442 -67 92 -115 187 -115 227
0 63 58 127 115 127 26 0 44 -11 85 -50 57 -55 70 -60 70 -29 0 34 -38 87 -85
119 -46 32 -80 36 -130 17z"/>
<path d="M4842 2994 c-28 -14 -65 -43 -82 -64 -97 -123 -78 -237 69 -410 89
-106 131 -186 131 -250 0 -63 -25 -96 -65 -86 -41 10 -83 57 -90 102 -14 89
-47 112 -53 38 -5 -59 14 -108 58 -147 100 -91 228 -64 260 54 26 95 -13 207
-130 369 -83 115 -110 170 -110 224 0 62 14 93 52 116 56 34 83 27 143 -35 29
-30 55 -55 59 -55 12 0 6 42 -11 77 -9 19 -34 48 -56 64 -52 37 -104 38 -175
3z"/>
<path d="M1790 2985 c-10 -12 -8 -16 15 -25 14 -5 37 -10 51 -10 l24 0 0 -385
0 -385 -24 0 c-13 0 -29 -6 -35 -14 -23 -28 12 -37 135 -34 114 3 119 4 122
25 3 18 -4 24 -37 34 l-41 12 0 373 0 372 50 7 c53 7 72 21 49 36 -8 5 -78 9
-155 9 -113 0 -144 -3 -154 -15z"/>
<path d="M6476 2931 c-25 -28 -17 -72 16 -90 24 -14 28 -14 47 3 23 21 28 75
9 94 -18 18 -53 15 -72 -7z"/>
<path d="M1602 2700 c-63 -39 -67 -105 -9 -140 38 -24 68 -25 106 -5 54 28 59
98 10 140 -37 30 -63 32 -107 5z"/>
<path d="M5744 2675 c-38 -16 -54 -36 -61 -79 -5 -30 -1 -40 25 -66 34 -33 67
-38 111 -15 51 26 58 96 14 137 -37 34 -54 38 -89 23z"/>
<path d="M6200 2680 c-7 -4 -29 -57 -49 -117 l-36 -108 -92 -5 c-51 -3 -97
-10 -104 -17 -19 -19 8 -69 73 -136 l58 -59 -25 -80 c-27 -84 -30 -114 -16
-137 16 -24 77 -3 148 51 l68 51 75 -41 c41 -22 94 -46 118 -53 37 -11 45 -10
59 4 15 14 13 23 -25 102 l-42 86 54 65 c91 110 84 141 -39 170 -39 10 -76 22
-84 28 -8 6 -33 52 -56 102 -42 90 -60 110 -85 94z m61 -171 c26 -72 45 -86
121 -95 32 -4 65 -12 75 -19 16 -12 15 -16 -12 -50 -85 -106 -89 -121 -55
-201 11 -26 18 -49 15 -52 -3 -3 -38 11 -78 31 -93 48 -119 47 -196 -4 -34
-23 -65 -39 -68 -35 -3 3 4 39 16 80 26 88 22 103 -53 176 -25 24 -46 48 -46
53 0 9 75 3 127 -9 33 -9 59 26 84 108 12 40 24 76 26 81 9 15 23 -5 44 -64z"/>
<path d="M1184 2441 c-86 -24 -146 -62 -230 -146 -79 -77 -131 -167 -119 -205
11 -33 29 -23 65 38 49 82 156 184 235 223 50 24 83 33 138 37 67 4 75 2 104
-22 54 -46 65 -93 61 -262 l-3 -149 -46 -95 c-25 -52 -71 -137 -103 -189 -74
-121 -96 -165 -96 -191 0 -24 3 -24 66 -5 120 36 216 -1 268 -104 85 -167 -3
-394 -187 -486 -43 -21 -64 -25 -143 -25 l-92 0 -7 83 c-3 45 -17 303 -30 572
-27 538 -37 633 -69 622 -16 -6 -10 -410 13 -850 18 -344 18 -402 1 -412 -5
-3 -32 13 -61 35 -30 22 -57 40 -61 40 -29 0 17 -77 68 -116 64 -49 84 -72 84
-97 0 -13 7 -32 15 -43 13 -16 16 -17 25 -4 5 8 10 25 10 38 0 26 22 36 100
47 180 23 275 76 356 201 97 149 100 364 7 475 -36 42 -119 88 -174 95 -72 10
-76 15 -42 65 41 60 126 230 152 307 41 120 37 342 -8 430 -53 103 -153 134
-297 93z"/>
<path d="M3178 1986 c-32 -16 -55 -105 -36 -144 21 -43 67 -42 107 3 36 42 40
81 11 117 -24 31 -51 39 -82 24z"/>
<path d="M6706 1955 c-8 -38 -11 -40 -52 -25 -43 17 -52 -4 -17 -39 l31 -30
-34 -11 c-19 -6 -37 -16 -40 -22 -9 -14 15 -28 49 -28 26 0 27 -1 21 -40 -8
-47 0 -50 36 -15 l27 26 17 -26 c24 -36 36 -31 36 15 0 36 3 40 25 40 18 0 28
9 41 36 19 40 11 54 -33 54 -20 0 -21 3 -13 26 12 32 6 44 -24 44 -13 0 -29 7
-36 15 -19 23 -27 18 -34 -20z"/>
<path d="M4957 1968 c-37 -29 -50 -126 -21 -166 30 -44 105 -12 122 51 21 79
-46 156 -101 115z"/>
<path d="M2459 1887 c-44 -29 -72 -80 -109 -196 -35 -108 -45 -151 -64 -278
-8 -51 -24 -114 -37 -140 -27 -56 -165 -204 -228 -245 -60 -38 -117 -38 -162
-1 -51 43 -69 94 -69 199 0 111 12 180 44 250 40 87 152 195 183 176 6 -4 14
-24 18 -45 6 -29 2 -48 -18 -90 -32 -64 -136 -189 -183 -217 -36 -23 -44 -47
-19 -56 46 -18 199 115 260 226 26 47 30 66 30 131 0 92 -15 115 -80 125 -59
8 -103 -15 -171 -90 -102 -112 -149 -250 -142 -416 3 -76 9 -106 30 -150 29
-63 87 -127 124 -136 48 -12 142 3 189 30 48 28 151 125 203 191 24 30 36 37
46 30 59 -44 66 -47 96 -40 38 8 143 105 220 204 30 38 58 70 61 70 8 1 19
-236 19 -398 l0 -126 -135 -143 c-214 -228 -269 -310 -269 -408 0 -65 19 -95
81 -124 102 -49 240 -20 310 65 59 71 74 116 83 248 5 67 10 170 10 228 0 122
-11 100 137 271 50 58 118 142 150 185 l58 78 8 -50 c4 -27 10 -65 13 -84 7
-43 62 -101 97 -101 27 0 110 60 144 104 l20 25 5 -125 c5 -130 15 -162 42
-134 8 8 24 56 36 105 37 150 189 558 252 677 17 31 39 64 49 74 18 16 19 15
30 -12 15 -40 13 -303 -5 -492 -16 -168 -10 -253 23 -328 24 -54 73 -87 116
-79 38 7 53 22 61 63 7 37 -2 40 -47 16 -24 -12 -34 -13 -45 -3 -32 27 -37 87
-29 426 6 286 5 339 -9 386 -62 214 -170 109 -337 -328 -23 -60 -45 -114 -49
-118 -4 -4 -12 51 -19 123 -13 143 -17 160 -36 160 -20 0 -26 -27 -34 -146 -7
-103 -10 -116 -42 -169 -41 -70 -106 -145 -124 -145 -24 0 -29 35 -34 262 -3
124 -10 230 -14 235 -15 14 -34 -25 -56 -113 -36 -142 -88 -227 -266 -439
l-90 -106 -7 34 c-4 19 -11 135 -16 258 -9 219 -19 279 -47 279 -13 0 -72 -61
-140 -145 -67 -82 -177 -195 -191 -195 -40 0 -45 164 -10 320 39 173 89 285
136 310 16 9 30 0 88 -55 95 -89 117 -85 68 14 -53 103 -133 138 -207 88z
m231 -1410 c-17 -109 -50 -161 -123 -192 -82 -34 -197 -4 -205 54 -9 57 85
192 263 380 l70 74 3 -124 c1 -68 -2 -155 -8 -192z"/>
<path d="M5572 1890 c-53 -22 -147 -214 -243 -500 -28 -85 -55 -159 -59 -163
-5 -5 -11 49 -14 120 -8 154 -15 197 -38 201 -13 2 -23 -19 -48 -100 -55 -176
-156 -358 -193 -346 -45 15 -54 191 -22 420 10 69 15 134 11 143 -6 17 -8 17
-26 0 -35 -31 -60 -131 -85 -329 -16 -136 -45 -237 -95 -336 -32 -63 -45 -77
-56 -59 -3 6 -10 194 -13 418 -7 384 -8 409 -28 453 -26 57 -60 82 -95 69 -43
-16 -86 -60 -133 -135 -52 -84 -77 -143 -150 -350 l-52 -148 -7 106 c-8 133
-22 206 -42 226 -31 31 -35 -7 -32 -328 3 -295 4 -314 22 -327 10 -8 23 -12
27 -9 5 3 25 58 44 122 148 485 209 640 291 731 43 48 48 51 63 36 14 -14 17
-69 21 -448 4 -324 8 -438 18 -454 31 -54 105 -54 146 0 30 40 76 132 76 151
0 29 21 27 56 -3 48 -42 83 -41 134 5 22 20 57 64 78 97 l37 61 5 -130 c5
-131 10 -154 35 -154 31 0 67 79 167 369 92 267 197 511 219 511 8 0 11 -110
9 -382 -4 -538 -5 -514 25 -543 13 -14 34 -25 46 -25 30 0 80 56 128 142 65
119 60 115 109 83 l42 -27 54 26 c54 26 115 88 221 221 l40 49 6 -29 c4 -17 7
-137 8 -269 l1 -238 -115 -121 c-210 -219 -283 -325 -293 -427 -3 -39 0 -51
22 -77 35 -41 113 -74 182 -74 105 -2 214 77 249 179 17 52 23 107 34 339 l8
162 59 71 c239 289 257 316 252 387 l-3 45 -45 -68 c-52 -79 -117 -160 -212
-264 l-68 -74 0 54 c-1 140 -20 442 -30 479 -6 23 -16 41 -23 41 -16 0 -80
-67 -180 -186 -76 -92 -140 -154 -157 -154 -61 0 -23 354 57 533 31 68 76 112
101 98 9 -5 42 -35 72 -65 30 -31 60 -56 67 -56 42 0 -22 125 -86 167 -129 87
-245 -78 -300 -428 -23 -138 -32 -167 -99 -284 -24 -44 -56 -100 -70 -124 -18
-33 -27 -40 -34 -30 -5 9 -7 169 -3 414 6 412 2 490 -32 527 -18 20 -27 21
-61 8z m718 -1237 c0 -101 -21 -295 -35 -329 -20 -48 -82 -111 -122 -125 -68
-22 -179 5 -189 46 -9 35 13 98 55 162 41 61 266 303 282 303 5 0 9 -26 9 -57z"/>
<path d="M1906 665 l-7 -44 -32 19 c-34 21 -67 26 -67 10 0 -5 23 -26 50 -47
28 -20 50 -42 50 -49 0 -6 -12 -16 -27 -23 -20 -9 -23 -15 -15 -23 7 -7 12
-29 12 -50 0 -44 11 -48 38 -13 25 31 32 31 32 3 1 -34 38 -110 50 -103 7 4 8
30 4 71 l-7 64 32 0 c31 0 41 13 20 25 -6 4 -7 19 -4 36 6 26 4 29 -19 29 -31
0 -31 2 -10 57 20 52 13 65 -20 34 -29 -27 -41 -22 -49 19 -9 44 -24 37 -31
-15z"/>
<path d="M4909 673 c-5 -15 -13 -62 -16 -106 l-6 -80 -46 -19 c-97 -43 -99
-66 -7 -109 l61 -29 10 -97 c13 -125 24 -130 104 -46 l56 58 95 -7 c52 -4 103
-5 113 -2 26 8 20 34 -21 88 -20 27 -41 54 -45 60 -5 7 8 39 32 81 70 119 43
148 -95 105 l-68 -21 -69 76 c-38 41 -73 75 -78 75 -5 0 -14 -12 -20 -27z
m231 -155 c35 12 66 20 68 17 3 -2 -5 -27 -17 -54 -26 -62 -27 -116 0 -160 11
-18 18 -35 15 -38 -2 -3 -29 0 -59 7 -71 14 -99 6 -141 -40 -19 -21 -37 -36
-40 -32 -3 3 -6 26 -6 51 0 65 -18 92 -75 120 l-49 23 37 19 c50 26 66 55 74
132 l6 66 61 -66 62 -66 64 21z"/>
<path d="M5412 638 c-23 -23 -11 -78 17 -78 10 0 25 6 35 13 15 11 17 17 7 35
-16 30 -45 44 -59 30z"/>
<path d="M4634 595 c-18 -27 -13 -54 15 -79 18 -16 22 -16 50 -2 39 21 53 45
39 71 -15 27 -28 35 -60 35 -18 0 -33 -8 -44 -25z"/>
<path d="M1661 566 c-7 -8 -11 -27 -9 -43 2 -22 8 -28 28 -28 20 0 26 6 28 28
3 27 -12 57 -28 57 -4 0 -13 -6 -19 -14z"/>
<path d="M4481 476 c-7 -8 -11 -27 -9 -43 3 -24 8 -28 33 -28 26 0 30 3 30 29
0 37 -36 64 -54 42z"/>
<path d="M1579 441 l-24 -20 27 -27 c23 -23 29 -25 42 -14 19 15 21 51 4 68
-16 16 -22 15 -49 -7z"/>
<path d="M1712 388 c3 -29 6 -33 33 -33 21 0 31 5 33 18 5 25 -16 47 -45 47
-21 0 -24 -4 -21 -32z"/>
<path d="M4552 348 c-18 -18 -14 -53 7 -72 24 -22 53 -14 71 19 12 22 11 27
-5 45 -20 22 -55 26 -73 8z"/>
</g>
</svg>
