<?xml version="1.0" standalone="no"?>
<!DOCTYPE svg PUBLIC "-//W3C//DTD SVG 20010904//EN"
 "http://www.w3.org/TR/2001/REC-SVG-20010904/DTD/svg10.dtd">
<svg version="1.0" xmlns="http://www.w3.org/2000/svg"
 width="626.000000pt" height="626.000000pt" viewBox="0 0 626.000000 626.000000"
 preserveAspectRatio="xMidYMid meet">

<g transform="translate(0.000000,626.000000) scale(0.100000,-0.100000)"
fill="#000000" stroke="none">
<path d="M3274 5633 c17 -231 22 -261 46 -237 8 8 8 43 0 125 -17 183 -20 199
-37 199 -13 0 -14 -13 -9 -87z"/>
<path d="M3879 5389 c-101 -123 -128 -163 -115 -176 4 -4 15 -2 24 3 26 17
222 263 222 279 0 36 -37 6 -131 -106z"/>
<path d="M2930 5490 c0 -6 18 -46 40 -90 36 -72 60 -95 74 -72 6 10 -49 130
-71 155 -18 19 -43 23 -43 7z"/>
<path d="M3576 5468 c-23 -55 -40 -118 -33 -124 23 -24 66 46 70 113 3 48 -19
55 -37 11z"/>
<path d="M2565 5409 c-9 -13 55 -74 174 -166 96 -75 121 -86 121 -55 0 11 -45
55 -117 113 -151 121 -165 130 -178 108z"/>
<path d="M3214 5290 c-58 -12 -159 -55 -216 -91 -105 -68 -214 -224 -226 -325
-4 -42 8 -64 25 -41 5 6 20 41 33 77 31 88 56 124 133 196 108 102 217 144
372 144 150 0 260 -40 379 -138 67 -56 159 -161 187 -214 20 -39 49 -51 49
-20 0 59 -155 240 -272 318 -102 68 -190 96 -318 100 -58 2 -123 -1 -146 -6z"/>
<path d="M4017 5148 c-59 -35 -87 -57 -87 -70 0 -27 26 -22 94 19 87 52 127
83 121 94 -12 18 -43 8 -128 -43z"/>
<path d="M2555 5090 c-10 -17 2 -27 70 -54 79 -32 87 -32 83 -4 -2 16 -18 27
-63 44 -68 26 -81 28 -90 14z"/>
<path d="M3540 4811 l-25 -7 -3 -352 c-2 -321 -1 -353 14 -359 30 -11 44 25
45 116 0 47 4 108 7 136 l7 50 78 -148 c79 -148 97 -168 126 -133 15 18 -3 68
-84 224 l-65 126 39 36 c54 48 81 96 81 147 0 82 -40 133 -124 158 -54 16 -58
16 -96 6z m109 -50 c100 -51 94 -165 -12 -242 -22 -16 -44 -26 -48 -22 -4 5
-9 70 -11 146 -4 155 -4 156 71 118z"/>
<path d="M3773 4813 c-27 -10 -10 -55 71 -190 l85 -139 4 -182 c5 -192 11
-216 51 -210 20 3 21 10 26 214 3 131 9 216 16 225 18 23 108 258 101 265 -17
17 -38 -15 -85 -127 -28 -68 -54 -125 -59 -126 -4 -2 -30 36 -57 85 -104 184
-117 200 -153 185z"/>
<path d="M2908 4799 c-24 -13 -23 -46 7 -214 54 -314 86 -437 119 -464 39 -33
74 77 121 374 29 190 33 275 10 275 -17 0 -20 -10 -40 -150 -20 -137 -57 -341
-62 -336 -2 2 -19 95 -38 207 -19 112 -40 224 -47 248 -15 51 -44 75 -70 60z"/>
<path d="M2642 4788 c-22 -27 -35 -206 -29 -416 3 -114 9 -220 14 -237 l9 -30
98 -3 c89 -2 97 -1 94 15 -2 14 -16 19 -58 23 l-55 5 -7 40 c-4 22 -7 91 -7
153 l-1 112 29 0 c31 0 46 21 28 39 -6 6 -21 11 -34 11 -23 0 -23 1 -23 130
l0 130 71 0 c62 0 70 2 67 18 -3 14 -17 17 -94 20 -65 2 -94 -1 -102 -10z"/>
<path d="M3253 4788 c-19 -23 -33 -177 -33 -352 1 -161 12 -312 26 -325 3 -3
48 -8 101 -9 88 -4 95 -3 91 15 -2 14 -15 19 -58 23 l-55 5 -7 50 c-3 28 -7
96 -7 153 l-1 102 29 0 c18 0 31 6 35 17 8 19 -9 33 -41 33 -23 0 -23 2 -23
130 l0 130 71 0 c62 0 70 2 67 18 -3 14 -17 17 -94 20 -65 2 -94 -1 -101 -10z"/>
<path d="M1643 4458 c-11 -18 -4 -1091 8 -1103 13 -13 29 6 40 51 5 22 27 127
49 234 60 300 126 530 199 692 16 36 34 69 40 73 7 4 18 -9 29 -32 15 -34 17
-75 15 -390 -2 -292 0 -353 11 -353 23 0 33 21 81 161 60 173 113 284 164 339
47 53 56 47 67 -40 7 -51 0 -149 -27 -420 -13 -128 -4 -306 17 -360 22 -54 69
-93 103 -85 36 8 95 76 122 140 12 30 26 55 29 55 4 0 13 -11 20 -25 7 -13 28
-31 47 -40 32 -16 36 -15 79 5 53 26 77 67 101 171 14 64 18 71 49 84 18 7 57
35 85 62 l51 48 -3 -180 c-4 -164 -3 -180 13 -183 23 -4 26 3 99 263 34 121
69 233 77 250 l15 30 10 -25 c6 -14 12 -97 13 -185 2 -88 3 -164 3 -168 1 -5
11 -7 24 -5 17 2 36 30 87 131 36 70 75 137 87 148 40 41 45 21 41 -200 -3
-187 -1 -209 16 -241 25 -46 44 -59 87 -60 42 0 74 29 117 109 26 46 31 51 36
33 13 -41 63 -72 115 -72 77 0 142 57 207 180 l29 55 3 -50 c4 -81 10 -97 34
-93 19 3 31 32 93 235 88 285 133 364 157 277 5 -16 6 -104 2 -196 -11 -280 9
-378 80 -386 38 -5 66 24 107 107 l33 66 7 -125 c8 -142 25 -220 64 -285 52
-90 116 -100 172 -27 37 49 66 135 61 184 -3 30 -8 24 -55 -73 -29 -59 -60
-109 -69 -113 -23 -9 -71 46 -85 96 -25 95 -31 177 -32 418 0 238 19 520 37
538 4 3 93 -2 199 -11 243 -22 247 -22 247 2 0 10 -7 22 -16 25 -9 4 -100 13
-203 22 -253 21 -231 13 -231 82 0 58 -12 93 -27 79 -4 -5 -13 -38 -18 -75
l-10 -67 -55 -3 c-124 -5 -375 -33 -384 -42 -7 -7 -6 -14 1 -21 9 -9 56 -9
190 0 98 6 193 11 212 11 l34 0 -6 -47 c-4 -27 -14 -129 -23 -228 -12 -139
-23 -200 -45 -270 -30 -93 -76 -186 -95 -192 -6 -2 -17 9 -25 24 -11 22 -14
83 -14 273 -1 135 -5 254 -10 265 -26 63 -78 73 -119 24 -39 -47 -54 -78 -106
-236 l-47 -143 -10 105 c-5 58 -15 111 -21 117 -23 23 -32 -5 -32 -95 0 -74
-4 -98 -20 -122 -10 -16 -33 -57 -51 -92 -38 -75 -116 -153 -154 -153 -40 0
-74 28 -87 73 -11 36 -10 41 7 51 76 43 175 181 175 243 0 24 -40 73 -60 73
-22 0 -68 -30 -93 -59 -30 -36 -61 -116 -76 -194 -6 -31 -29 -95 -51 -142 -59
-123 -104 -145 -137 -68 -13 32 -15 68 -11 217 6 193 -1 243 -35 255 -49 18
-94 -24 -160 -152 l-42 -82 -5 125 c-5 95 -11 135 -26 165 -40 83 -84 38 -140
-144 -52 -166 -53 -168 -53 -73 -1 80 -11 122 -31 122 -5 0 -30 -27 -55 -60
-25 -33 -63 -71 -83 -85 l-37 -25 -7 84 c-14 184 -95 257 -148 134 -17 -40
-21 -65 -18 -115 4 -72 26 -109 76 -133 35 -17 36 -20 5 -129 -15 -53 -53
-101 -79 -101 -22 0 -51 39 -64 86 -16 55 -8 137 21 222 12 35 19 66 16 69
-27 26 -75 -71 -93 -187 -15 -102 -73 -245 -114 -285 -29 -28 -30 -28 -49 -10
-11 9 -26 34 -33 54 -19 52 -15 342 6 540 23 208 10 302 -44 331 -60 32 -140
-65 -221 -267 -17 -43 -33 -80 -35 -82 -2 -3 -3 96 -2 220 3 195 1 232 -16
286 -21 70 -46 103 -80 103 -66 0 -146 -185 -246 -570 l-48 -185 -2 330 c-1
182 -5 350 -8 374 -7 45 -24 62 -39 39z m1147 -615 c14 -45 26 -193 16 -193
-19 0 -47 24 -62 52 -17 34 -15 101 5 151 15 37 28 34 41 -10z m1120 -68 c0
-14 -9 -43 -19 -64 -21 -41 -106 -139 -114 -131 -2 3 5 38 16 78 14 51 29 83
52 108 39 41 65 45 65 9z"/>
<path d="M1295 3978 c-126 -45 -196 -165 -196 -338 0 -95 17 -162 55 -221 31
-46 31 -49 8 -49 -35 0 -137 -59 -189 -110 -64 -62 -113 -157 -113 -216 0 -24
9 -66 19 -94 l19 -50 -38 0 c-58 0 -160 -35 -226 -78 -121 -78 -186 -186 -188
-312 -1 -89 37 -160 111 -209 l52 -35 -45 -48 c-25 -27 -57 -74 -72 -106 -23
-49 -27 -70 -27 -147 0 -74 4 -98 22 -132 24 -45 70 -85 117 -103 72 -27 216
-7 276 40 37 28 20 33 -52 16 -104 -24 -127 -26 -178 -15 -92 20 -139 85 -140
191 0 109 71 233 161 278 20 11 40 23 43 28 10 16 -12 34 -55 43 -69 15 -113
51 -144 113 -33 68 -29 119 16 212 37 77 90 126 188 173 72 34 82 36 176 36
86 0 100 2 103 17 2 9 -8 24 -22 33 -33 22 -66 92 -66 141 1 53 29 113 82 170
66 72 122 102 221 119 21 3 40 12 43 20 3 7 -15 38 -39 68 -60 74 -72 112 -72
232 1 119 24 184 87 240 48 44 76 55 135 55 56 0 104 -27 135 -78 l23 -37 3
34 c9 88 -126 157 -233 119z"/>
<path d="M805 3870 c-9 -15 3 -47 20 -54 27 -10 46 5 43 33 -2 20 -9 27 -30
29 -14 2 -29 -2 -33 -8z"/>
<path d="M932 3854 c-42 -29 -22 -104 27 -104 55 0 80 61 41 100 -24 24 -38
25 -68 4z"/>
<path d="M5032 3723 c-74 -26 -135 -103 -118 -148 8 -22 36 -18 36 4 0 25 44
77 81 96 15 8 50 15 77 15 94 0 181 -81 204 -192 10 -47 9 -69 -6 -138 -21
-99 -16 -110 44 -90 35 12 45 11 75 -3 95 -45 87 -203 -16 -290 -47 -41 -49
-60 -8 -78 18 -7 44 -32 60 -58 46 -73 37 -147 -27 -224 -47 -57 -29 -73 58
-52 157 37 255 -4 308 -127 54 -126 30 -252 -66 -345 -56 -53 -91 -69 -207
-93 -82 -17 -70 -35 24 -35 57 0 85 5 121 23 67 33 139 101 168 158 22 43 25
62 25 159 0 123 -15 170 -74 237 -51 59 -111 82 -206 81 l-81 -1 18 52 c9 28
17 60 18 71 0 39 -21 94 -56 145 l-36 52 25 27 c44 47 67 105 67 171 0 105
-55 177 -143 187 l-42 5 0 102 c0 113 -10 143 -73 216 -41 49 -121 90 -172 89
-19 0 -54 -7 -78 -16z"/>
<path d="M815 3650 c-4 -6 -4 -24 0 -40 6 -29 6 -30 -24 -24 -25 5 -31 3 -31
-11 0 -9 13 -22 30 -28 17 -6 30 -14 30 -17 0 -3 -19 -13 -41 -22 -52 -22 -43
-42 13 -33 l40 7 -7 -50 c-10 -77 24 -79 40 -2 l8 34 23 -47 c36 -71 65 -61
39 13 -8 23 -15 44 -15 46 0 2 18 1 40 -2 49 -8 54 9 10 34 -21 11 -29 23 -26
35 4 16 -5 21 -31 18 -16 -2 -16 -2 1 47 8 23 11 44 6 47 -11 7 -37 -19 -46
-47 -6 -20 -8 -19 -26 15 -20 40 -23 43 -33 27z"/>
<path d="M5701 3423 c-13 -26 1 -45 30 -41 18 2 24 9 24 28 0 32 -39 41 -54
13z"/>
<path d="M5594 3365 c-8 -31 12 -57 40 -53 28 4 34 47 10 65 -27 20 -43 16
-50 -12z"/>
<path d="M633 3288 c-5 -7 -17 -32 -27 -55 l-19 -42 -61 -3 c-76 -4 -81 -17
-31 -82 l36 -48 -21 -44 c-12 -24 -19 -51 -16 -59 8 -23 53 -18 107 13 32 17
52 23 57 16 14 -20 57 -44 81 -44 23 0 24 1 17 61 -6 60 -5 62 30 101 47 53
42 72 -21 78 l-49 5 -21 55 c-21 55 -43 72 -62 48z m60 -126 c5 -6 26 -12 49
-12 l40 0 -37 -41 c-34 -38 -36 -44 -30 -86 6 -42 5 -44 -14 -34 -11 6 -23 16
-26 21 -10 15 -46 11 -94 -10 -40 -18 -43 -19 -36 -2 31 73 31 70 -3 105 -18
18 -32 36 -32 39 0 4 21 8 48 10 46 3 48 4 71 53 l24 50 16 -40 c9 -22 20 -46
24 -53z"/>
<path d="M1233 3226 c-4 -8 -17 -14 -28 -13 -14 1 -19 -3 -17 -16 3 -15 -2
-18 -24 -15 -33 4 -43 -17 -15 -32 27 -14 27 -28 -1 -32 -38 -5 -33 -28 6 -28
35 0 35 0 29 -37 l-6 -38 22 20 c19 16 24 17 31 5 6 -8 10 -18 10 -22 0 -5 5
-8 11 -8 8 0 10 14 6 41 -5 35 -3 40 11 34 40 -17 52 -17 52 -2 0 9 -4 19 -10
22 -5 3 -10 15 -10 26 0 14 -7 19 -26 19 -24 0 -25 2 -18 45 6 45 -6 61 -23
31z"/>
<path d="M5783 3228 c-5 -7 -13 -22 -17 -33 -8 -19 -8 -19 -17 3 -8 22 -35 39
-45 30 -2 -3 0 -17 5 -32 12 -29 9 -31 -21 -15 -15 8 -23 8 -32 -1 -8 -8 -2
-18 24 -40 l35 -29 -33 -12 c-38 -13 -37 -34 2 -34 25 1 26 -2 24 -37 -3 -51
7 -57 31 -18 l19 32 16 -31 c22 -42 39 -40 34 4 -4 31 -2 34 19 29 21 -6 22
-3 19 33 -3 32 -8 38 -28 41 -24 3 -25 4 -15 53 10 53 0 83 -20 57z"/>
<path d="M5130 3176 c-6 -8 -10 -25 -8 -38 2 -18 9 -23 33 -23 26 0 30 4 33
29 5 41 -32 62 -58 32z"/>
<path d="M3287 3166 c-11 -12 -14 -75 -13 -358 l1 -343 23 -3 c43 -6 52 13 53
117 1 53 4 123 8 156 l6 60 32 -43 c30 -40 48 -98 69 -217 8 -50 20 -65 50
-65 31 0 38 14 35 72 -3 78 -37 170 -82 227 l-41 51 36 45 c73 88 82 159 33
235 -44 65 -170 105 -210 66z m106 -47 c73 -38 101 -101 72 -163 -21 -44 -99
-117 -102 -96 -7 52 -7 270 0 270 4 0 18 -5 30 -11z"/>
<path d="M5262 3163 c-13 -26 -4 -43 23 -43 27 0 40 26 24 46 -16 19 -37 17
-47 -3z"/>
<path d="M2521 3149 c-10 -11 -24 -40 -30 -63 -23 -91 -42 -314 -39 -461 l3
-150 36 -3 c46 -4 49 4 49 164 0 138 -2 134 81 134 l49 0 0 -122 c0 -140 5
-170 29 -166 14 3 16 23 13 168 -5 266 -40 426 -107 488 -41 37 -57 40 -84 11z
m102 -137 c15 -45 30 -108 33 -141 l7 -59 -58 -3 -58 -4 7 80 c13 174 19 216
30 212 6 -2 23 -40 39 -85z"/>
<path d="M2990 3161 c-24 -7 -25 -10 -31 -116 -4 -61 -7 -208 -8 -327 -1 -185
1 -219 15 -232 39 -39 64 -10 64 74 0 37 3 108 6 158 l7 91 38 6 c29 5 39 11
39 26 0 16 -7 19 -40 19 l-40 0 0 130 0 130 83 0 c88 0 114 9 104 34 -5 13
-24 16 -109 15 -57 -1 -114 -4 -128 -8z"/>
<path d="M3649 3164 c-14 -4 -17 -43 -23 -307 -3 -166 -9 -314 -12 -329 -4
-18 0 -32 15 -47 18 -18 33 -21 105 -21 65 0 85 3 90 15 8 21 -25 35 -85 35
l-52 0 7 61 c3 34 6 95 6 135 l0 74 45 0 c32 0 47 5 52 15 8 22 0 27 -49 29
l-43 1 -1 50 c-1 28 -5 96 -8 152 l-7 102 78 3 c61 2 78 6 78 18 0 12 -17 15
-90 17 -49 0 -97 -1 -106 -3z"/>
<path d="M4266 3154 c-3 -9 -6 -168 -6 -354 0 -321 1 -339 19 -345 10 -3 26
-3 35 1 14 5 16 27 16 170 l0 164 65 0 65 0 2 -162 c3 -146 5 -163 21 -166 16
-3 17 19 17 352 0 310 -2 356 -15 356 -8 0 -16 -1 -17 -2 0 -2 -4 -75 -7 -163
l-6 -160 -62 -3 -63 -3 0 150 c0 82 -3 156 -6 165 -3 9 -16 16 -29 16 -13 0
-26 -7 -29 -16z"/>
<path d="M2075 3128 c-77 -27 -134 -103 -135 -178 0 -52 41 -131 105 -200 53
-58 77 -98 95 -161 10 -35 -13 -89 -39 -89 -32 0 -81 48 -81 80 0 16 -5 41
-11 57 -8 22 -12 24 -19 13 -15 -23 -12 -78 5 -114 20 -41 81 -76 133 -76 33
0 45 6 66 30 64 77 43 177 -70 326 -100 132 -114 197 -52 249 44 37 70 32 116
-20 41 -46 60 -46 48 -1 -8 32 -81 96 -109 95 -12 0 -35 -5 -52 -11z"/>
<path d="M3999 3124 c-84 -25 -151 -128 -133 -207 11 -54 43 -106 103 -171 74
-79 108 -159 91 -210 -14 -44 -45 -48 -86 -12 -21 17 -29 35 -33 72 -7 61 -34
69 -39 12 -7 -82 60 -151 144 -151 51 0 78 20 95 70 26 80 -1 162 -96 288 -68
92 -85 126 -85 172 0 47 19 76 60 93 35 15 64 0 102 -50 12 -17 25 -30 30 -30
19 0 5 52 -22 84 -41 47 -74 56 -131 40z"/>
<path d="M1693 3113 c-28 -10 -13 -33 22 -33 l35 0 0 -290 0 -290 -25 0 c-28
0 -34 -24 -9 -34 9 -3 53 -6 99 -6 61 0 84 4 88 14 7 19 -12 36 -40 36 l-23 0
0 284 0 285 43 3 c29 2 42 8 42 18 0 12 -19 15 -110 16 -60 1 -116 -1 -122 -3z"/>
<path d="M5195 3060 c-15 -17 -16 -24 -7 -45 25 -54 94 -17 72 39 -12 31 -40
34 -65 6z"/>
<path d="M1543 2891 c-51 -32 -53 -84 -3 -111 71 -38 144 39 93 98 -27 30 -54
34 -90 13z"/>
<path d="M4650 2873 c-75 -28 -60 -133 20 -133 65 0 94 79 44 119 -27 21 -38
24 -64 14z"/>
<path d="M4960 2808 c-35 -120 -26 -112 -108 -109 -57 2 -73 -1 -78 -13 -7
-19 27 -70 73 -112 l34 -30 -20 -52 c-25 -63 -27 -110 -6 -118 22 -9 74 15
116 53 l37 33 60 -35 c70 -42 129 -56 137 -32 4 8 -8 43 -25 77 l-31 62 46 54
c70 82 57 108 -68 129 -29 5 -41 13 -49 33 -47 114 -58 132 -77 132 -17 0 -24
-13 -41 -72z m75 -57 c20 -60 27 -67 88 -75 83 -10 85 -16 33 -75 -49 -55 -51
-70 -20 -133 24 -46 16 -48 -46 -12 -69 42 -94 40 -160 -7 -23 -17 -44 -29
-46 -26 -2 2 2 21 9 43 31 89 31 89 -23 140 -57 54 -62 68 -22 60 108 -20 101
-21 122 26 10 24 22 60 25 80 9 47 19 42 40 -21z"/>
<path d="M1225 2696 c-58 -18 -83 -33 -143 -83 -65 -55 -114 -125 -116 -165
-2 -48 21 -44 47 9 29 57 116 142 177 173 24 12 70 25 102 28 48 4 62 1 79
-14 44 -40 54 -73 54 -184 -1 -96 -3 -111 -34 -182 -18 -43 -64 -128 -103
-189 -79 -127 -79 -142 0 -116 150 48 259 -91 208 -266 -21 -73 -68 -133 -135
-170 -46 -26 -65 -31 -125 -31 l-71 -1 -12 220 c-6 121 -16 324 -22 450 -9
214 -21 295 -41 295 -5 0 -11 -4 -14 -9 -6 -9 10 -443 27 -738 14 -231 14
-232 -61 -167 -31 26 -42 31 -42 19 0 -33 31 -75 74 -100 39 -23 45 -31 48
-63 4 -47 32 -52 36 -6 3 30 3 31 89 42 47 6 104 21 127 32 100 48 175 163
184 281 10 147 -63 248 -193 266 -25 3 -45 7 -45 9 0 2 12 20 26 41 45 65 112
211 125 270 6 31 9 98 7 147 -5 106 -29 165 -81 196 -37 23 -110 25 -172 6z"/>
<path d="M2710 2345 c-18 -22 -25 -92 -10 -110 32 -38 100 6 100 66 0 50 -60
80 -90 44z"/>
<path d="M5370 2329 c0 -26 -3 -30 -17 -24 -10 4 -26 10 -35 12 -26 8 -23 -21
5 -40 l22 -15 -33 -12 c-40 -15 -36 -36 6 -32 30 2 31 1 21 -25 -14 -38 4 -50
28 -19 l20 25 11 -24 c18 -38 35 -31 28 10 -7 35 -6 36 21 33 22 -2 27 1 25
15 -2 9 2 17 8 17 5 0 10 7 10 15 0 10 -10 15 -30 15 -28 0 -30 2 -20 20 14
26 4 43 -20 35 -11 -3 -20 0 -24 10 -10 26 -26 16 -26 -16z"/>
<path d="M4046 2328 c-19 -27 -21 -99 -4 -116 36 -36 98 7 98 68 0 63 -62 94
-94 48z"/>
<path d="M2193 2287 c-12 -7 -31 -24 -42 -38 -32 -41 -82 -203 -93 -303 -12
-112 -23 -135 -105 -225 -106 -116 -176 -139 -231 -76 -38 42 -46 81 -40 188
6 102 38 176 104 237 56 51 78 50 82 -5 2 -33 -4 -52 -36 -101 -36 -55 -114
-134 -134 -134 -4 0 -8 -6 -8 -14 0 -44 78 -9 144 65 65 72 89 123 90 185 1
69 -21 94 -81 94 -40 0 -49 -5 -98 -53 -62 -62 -89 -112 -110 -199 -31 -132
-11 -242 56 -309 35 -35 44 -39 87 -39 26 0 66 9 89 19 42 20 119 89 166 151
l26 34 24 -22 c13 -12 32 -22 44 -22 33 0 96 53 164 138 35 45 64 80 65 79 1
-1 4 -91 8 -200 l6 -199 -103 -106 c-158 -164 -206 -236 -207 -310 0 -48 16
-71 63 -93 93 -42 196 -12 253 73 38 57 46 103 46 272 -1 72 3 137 8 147 5 9
48 61 96 115 48 55 103 123 123 153 19 29 36 49 37 45 2 -5 5 -35 9 -68 5 -42
13 -65 30 -82 38 -38 72 -31 127 26 l48 50 0 -93 c0 -103 11 -134 35 -103 8
11 15 29 15 39 0 60 164 505 212 574 27 40 32 43 41 28 18 -33 20 -188 2 -345
-13 -127 -14 -166 -4 -218 15 -80 47 -122 94 -122 35 0 49 11 58 47 7 29 -5
36 -29 18 -29 -22 -40 -18 -55 18 -16 37 -17 159 -5 372 6 101 5 156 -4 198
-12 60 -37 97 -66 97 -45 0 -119 -129 -195 -339 -21 -58 -39 -97 -40 -86 0 11
-3 43 -5 70 -7 97 -16 155 -23 155 -22 0 -31 -30 -31 -107 0 -79 -2 -87 -36
-141 -43 -68 -73 -102 -90 -102 -22 0 -27 41 -26 207 1 89 -2 165 -7 167 -15
10 -31 -19 -41 -73 -19 -103 -62 -176 -194 -331 l-81 -94 -6 74 c-4 41 -7 125
-8 186 -1 116 -13 174 -37 174 -7 0 -52 -48 -99 -107 -47 -60 -100 -119 -117
-132 -30 -24 -31 -24 -44 -6 -52 71 48 465 118 465 9 0 36 -22 61 -50 67 -75
92 -60 42 25 -40 68 -91 91 -142 62z m175 -960 c-6 -150 -22 -197 -80 -239
-40 -28 -113 -30 -153 -4 -24 16 -27 23 -22 54 4 19 22 59 41 87 32 49 202
235 214 235 2 0 3 -60 0 -133z"/>
<path d="M4497 2264 c-39 -41 -100 -177 -152 -334 -26 -80 -50 -149 -54 -155
-3 -5 -8 48 -11 120 -4 112 -7 130 -22 133 -12 2 -19 -5 -24 -25 -31 -135
-121 -313 -159 -313 -38 0 -46 145 -18 316 9 57 13 107 9 111 -31 31 -69 -86
-85 -262 -7 -74 -17 -119 -41 -175 -37 -89 -58 -123 -70 -115 -6 4 -10 123
-10 299 0 234 -3 303 -15 344 -24 79 -62 92 -120 41 -56 -49 -109 -151 -161
-309 l-49 -145 -6 105 c-8 113 -20 160 -43 160 -12 0 -14 -40 -12 -246 1 -221
3 -248 18 -258 9 -5 20 -7 23 -4 4 4 29 82 55 175 54 186 96 306 135 382 26
52 81 121 96 121 23 0 30 -94 27 -374 -3 -266 -1 -294 15 -319 19 -29 53 -35
88 -16 20 10 79 121 79 147 0 19 10 15 32 -13 14 -17 29 -25 52 -25 37 0 66
27 115 104 l31 50 0 -107 c0 -91 3 -109 17 -114 28 -11 48 30 123 250 65 194
159 417 176 417 3 0 5 -152 3 -339 -4 -322 -3 -340 15 -360 42 -46 78 -22 141
94 21 39 40 72 41 73 1 2 16 -6 32 -18 27 -20 34 -21 66 -10 35 11 99 74 166
163 19 25 38 47 43 47 4 0 7 -90 7 -201 l0 -201 -109 -114 c-126 -132 -175
-200 -193 -267 -16 -62 -1 -93 62 -124 81 -42 177 -21 237 51 46 56 55 96 60
276 5 163 5 165 33 195 15 17 68 81 119 143 85 107 91 117 91 160 l0 47 -36
-55 c-38 -59 -102 -137 -170 -209 l-41 -43 -6 195 c-6 190 -14 237 -40 237 -7
0 -52 -50 -101 -110 -88 -110 -138 -156 -155 -146 -28 18 -14 196 25 326 27
90 64 150 92 150 9 0 38 -23 64 -52 35 -40 49 -50 58 -42 16 16 -19 83 -60
118 -104 87 -205 -55 -240 -340 -8 -66 -18 -96 -52 -155 -23 -41 -53 -94 -66
-119 l-25 -45 -10 30 c-7 19 -6 114 1 280 12 253 6 381 -18 410 -19 22 -46 18
-73 -11z m558 -981 c-3 -65 -11 -135 -16 -156 -13 -49 -62 -104 -104 -116 -46
-12 -122 5 -136 31 -13 24 7 86 45 137 41 55 197 221 208 221 7 0 8 -38 3
-117z"/>
<path d="M1770 1364 l0 -36 -33 21 c-31 19 -47 19 -47 1 0 -4 18 -20 40 -35
45 -31 49 -40 20 -48 -21 -5 -28 -27 -9 -27 7 0 8 -11 4 -30 -8 -36 7 -40 29
-8 9 12 16 20 17 18 7 -43 27 -95 38 -98 11 -4 13 6 7 52 l-6 56 25 -6 c26 -7
33 4 13 24 -8 8 -8 15 2 27 11 13 9 15 -14 15 -31 0 -30 -2 -10 45 18 44 10
59 -16 28 -24 -30 -27 -29 -35 7 -9 41 -25 38 -25 -6z"/>
<path d="M4024 1378 c-5 -7 -11 -44 -14 -82 l-5 -68 -45 -17 c-65 -24 -64 -46
4 -76 l56 -25 0 -69 c0 -40 5 -73 11 -77 17 -10 51 13 78 52 l24 34 88 -6 c81
-6 89 -5 89 11 0 10 -16 38 -36 62 l-36 43 31 51 c59 95 38 118 -73 81 -31
-10 -56 -16 -56 -13 0 10 -91 111 -100 111 -5 0 -12 -6 -16 -12z m93 -110 c31
-33 28 -32 83 -13 59 21 62 19 41 -17 -32 -55 -35 -94 -12 -127 12 -16 21 -31
21 -34 0 -2 -19 -1 -42 4 -68 13 -76 11 -110 -27 l-33 -36 -5 57 c-5 60 -9 66
-65 86 l-30 11 30 15 c45 23 55 41 55 102 l1 56 20 -25 c11 -14 31 -37 46 -52z"/>
<path d="M4397 1343 c-13 -12 -7 -54 8 -59 15 -6 45 12 45 27 0 10 -29 39 -39
39 -4 0 -11 -3 -14 -7z"/>
<path d="M3811 1308 c-10 -26 2 -56 25 -65 20 -7 64 24 64 45 0 45 -74 60 -89
20z"/>
<path d="M1581 1281 c-15 -27 -3 -53 23 -49 16 2 21 10 21 33 0 36 -28 46 -44
16z"/>
<path d="M3694 1216 c-3 -8 -4 -23 -2 -33 5 -25 51 -25 56 0 7 36 -42 65 -54
33z"/>
<path d="M1520 1194 c-11 -13 -10 -19 9 -37 22 -21 23 -21 36 -3 28 37 -16 76
-45 40z"/>
<path d="M1622 1153 c2 -22 8 -28 28 -28 20 0 25 5 25 25 0 20 -6 26 -28 28
-26 3 -28 1 -25 -25z"/>
<path d="M3750 1120 c-8 -14 -8 -26 0 -40 14 -25 46 -26 60 -1 13 25 13 27 -6
45 -21 22 -41 20 -54 -4z"/>
<path d="M3305 410 c3 -5 1 -10 -4 -10 -6 0 -11 -4 -11 -9 0 -4 11 -6 25 -4
21 4 22 7 10 19 -16 16 -29 19 -20 4z"/>
<path d="M3274 355 c-49 -49 -21 -83 59 -71 57 9 66 16 71 56 l4 35 -55 2
c-46 2 -58 -1 -79 -22z m121 4 c11 -17 -1 -21 -15 -4 -8 9 -8 15 -2 15 6 0 14
-5 17 -11z m-75 -35 c0 -20 -30 -30 -40 -13 -11 17 7 40 26 32 8 -3 14 -12 14
-19z m50 0 c0 -9 -5 -14 -12 -12 -18 6 -21 28 -4 28 9 0 16 -7 16 -16z"/>
<path d="M3473 358 c-14 -32 -5 -108 13 -108 9 0 14 12 14 35 0 27 4 35 18 35
15 1 15 2 -3 16 -14 11 -16 18 -7 21 18 7 14 23 -6 23 -11 0 -23 -10 -29 -22z"/>
<path d="M3890 364 c0 -17 22 -14 28 4 2 7 -3 12 -12 12 -9 0 -16 -7 -16 -16z"/>
<path d="M3930 315 c0 -51 3 -65 15 -65 8 0 15 8 15 18 1 16 1 16 11 0 5 -10
17 -18 25 -18 13 0 13 3 0 22 -14 20 -14 24 1 40 22 25 8 36 -17 13 -20 -18
-20 -18 -20 18 0 26 -4 37 -15 37 -12 0 -15 -14 -15 -65z"/>
<path d="M2310 352 c0 -13 -8 -18 -26 -17 -33 0 -49 -24 -40 -58 5 -23 12 -27
41 -27 l35 0 0 60 c0 33 -2 60 -5 60 -3 0 -5 -8 -5 -18z m-12 -31 c21 -13 11
-55 -14 -59 -26 -4 -38 22 -24 49 12 21 18 23 38 10z"/>
<path d="M2525 360 c-3 -5 -1 -10 4 -10 6 0 11 5 11 10 0 6 -2 10 -4 10 -3 0
-8 -4 -11 -10z"/>
<path d="M2920 352 c0 -13 -8 -18 -27 -17 -21 0 -30 -7 -37 -27 -13 -36 6 -58
49 -58 l33 0 0 60 c-1 33 -5 60 -9 60 -5 0 -9 -8 -9 -18z m-2 -61 c-4 -35 -41
-37 -46 -2 -4 26 13 42 35 34 8 -3 13 -16 11 -32z"/>
<path d="M3001 312 l-1 -63 38 3 c32 3 37 7 40 31 4 37 -15 60 -44 53 -18 -5
-24 -1 -27 16 -2 13 -5 -5 -6 -40z m62 -4 c14 -21 2 -48 -22 -48 -24 0 -37 36
-20 56 14 17 28 14 42 -8z"/>
<path d="M3239 363 c-11 -3 -15 -11 -12 -24 5 -19 6 -19 20 1 17 24 15 28 -8
23z"/>
<path d="M2356 324 c-19 -18 -21 -45 -4 -62 13 -13 54 -16 62 -4 2 4 -7 8 -21
7 -14 0 -28 6 -30 13 -3 8 7 12 31 12 29 0 34 3 29 18 -13 34 -42 41 -67 16z
m52 -11 c2 -8 -6 -13 -22 -13 -25 0 -33 10 -19 24 10 10 36 3 41 -11z"/>
<path d="M2447 333 c-14 -14 -6 -34 18 -43 14 -5 25 -15 25 -21 0 -7 -10 -9
-25 -7 -14 3 -25 1 -25 -4 0 -5 15 -8 33 -6 40 4 43 28 4 46 -30 14 -27 37 4
29 11 -3 17 -1 13 4 -6 10 -38 12 -47 2z"/>
<path d="M2527 333 c-11 -10 -8 -83 3 -83 6 0 10 20 10 45 0 46 -2 50 -13 38z"/>
<path d="M2570 325 c-6 -8 -10 -26 -8 -42 2 -22 9 -29 31 -31 37 -4 29 -28 -9
-25 -28 2 -29 2 -6 -9 38 -19 57 0 60 63 3 53 2 54 -27 56 -16 1 -35 -4 -41
-12z m47 -7 c5 -7 8 -19 7 -25 -1 -7 -2 -18 -3 -24 -2 -17 -46 -5 -49 14 -4
18 14 47 28 47 4 0 12 -6 17 -12z"/>
<path d="M2660 293 c0 -53 18 -57 22 -5 2 25 8 37 18 37 10 0 16 -12 18 -37 4
-47 22 -50 22 -4 0 40 -15 55 -52 53 -26 -2 -28 -5 -28 -44z"/>
<path d="M2766 324 c-19 -18 -20 -28 -6 -55 11 -19 70 -28 70 -11 0 4 -12 8
-27 7 -14 0 -28 6 -30 13 -3 8 7 12 31 12 37 0 47 15 24 38 -17 17 -44 15 -62
-4z m54 -9 c11 -13 8 -15 -19 -15 -31 0 -42 14 -18 23 20 9 24 8 37 -8z"/>
<path d="M3090 336 c0 -2 9 -25 20 -50 18 -42 18 -46 2 -55 -9 -5 -14 -13 -10
-16 11 -12 28 4 43 43 24 56 29 95 7 47 l-19 -40 -16 38 c-14 31 -27 48 -27
33z"/>
<path d="M3540 310 c0 -16 -3 -35 -6 -44 -4 -11 -1 -16 10 -16 11 0 16 9 16
30 0 18 6 33 15 36 23 9 18 22 -10 22 -21 0 -25 -5 -25 -28z"/>
<path d="M3606 324 c-19 -18 -21 -45 -4 -62 14 -14 68 -16 68 -2 0 6 -12 10
-27 10 -21 0 -24 3 -14 9 8 5 23 8 33 6 12 -3 18 2 18 14 0 38 -45 54 -74 25z
m44 -14 c0 -5 -7 -10 -15 -10 -8 0 -15 5 -15 10 0 6 7 10 15 10 8 0 15 -4 15
-10z"/>
<path d="M3701 326 c-7 -8 -11 -27 -9 -43 3 -24 8 -28 41 -31 21 -2 37 1 37 7
0 6 -11 11 -25 11 -14 0 -25 4 -25 8 0 4 12 8 28 7 22 0 26 4 24 20 -7 35 -49
47 -71 21z m44 -16 c3 -5 -3 -10 -15 -10 -12 0 -18 5 -15 10 3 6 10 10 15 10
5 0 12 -4 15 -10z"/>
<path d="M3790 273 c0 -35 4 -63 10 -63 6 0 10 9 10 20 0 14 7 20 23 20 29 0
47 18 47 46 0 29 -19 43 -58 42 l-32 -1 0 -64z m57 36 c14 -14 6 -39 -12 -39
-18 0 -28 17 -21 35 6 18 18 19 33 4z"/>
<path d="M3896 333 c-3 -3 -6 -24 -6 -45 0 -27 4 -38 15 -38 11 0 15 11 15 39
0 38 -10 57 -24 44z"/>
<path d="M3365 280 c-11 -5 -37 -9 -59 -9 -33 -1 -37 -3 -26 -16 19 -23 65
-18 97 10 28 25 24 30 -12 15z"/>
</g>
</svg>
